<svg width="200px" height="200px" viewBox="-8.4 -8.4 40.80 40.80" fill="none" xmlns="http://www.w3.org/2000/svg"
     stroke="#806bb5" transform="rotate(-45)" stroke-width="0.00024000000000000003">
    <g id="SVGRepo_bgCarrier" stroke-width="0" transform="translate(0,0), scale(1)">
        <path transform="translate(-8.4, -8.4), scale(2.55)" fill="#ddcbff"
              d="M9.166.33a2.25 2.25 0 00-2.332 0l-5.25 3.182A2.25 2.25 0 00.5 5.436v5.128a2.25 2.25 0 001.084 1.924l5.25 3.182a2.25 2.25 0 002.332 0l5.25-3.182a2.25 2.25 0 001.084-1.924V5.436a2.25 2.25 0 00-1.084-1.924L9.166.33z"
              strokewidth="0"></path>
    </g>
    <g id="SVGRepo_tracerCarrier" stroke-linecap="round" stroke-linejoin="round"></g>
    <g id="SVGRepo_iconCarrier">
        <path
                d="M3.29289 3.29289C3.48043 3.10536 3.73478 3 4 3H13C13.2652 3 13.5196 3.10536 13.7071 3.29289C13.8946 3.48043 14 3.73479 14 4V5C14 5.55228 14.4477 6 15 6C15.5523 6 16 5.55228 16 5V4C16 3.20435 15.6839 2.44129 15.1213 1.87868C14.5587 1.31607 13.7956 1 13 1H4C3.20435 1 2.44129 1.31607 1.87868 1.87868C1.31607 2.44129 1 3.20435 1 4V13C1 13.7956 1.31607 14.5587 1.87868 15.1213C2.44129 15.6839 3.20435 16 4 16H5C5.55228 16 6 15.5523 6 15C6 14.4477 5.55228 14 5 14H4C3.73479 14 3.48043 13.8946 3.29289 13.7071C3.10536 13.5196 3 13.2652 3 13V4C3 3.73478 3.10536 3.48043 3.29289 3.29289Z"
                fill="#000000"></path>
        <path fill-rule="evenodd" clip-rule="evenodd"
              d="M11 8C9.34315 8 8 9.34315 8 11V20C8 21.6569 9.34315 23 11 23H20C21.6569 23 23 21.6569 23 20V11C23 9.34315 21.6569 8 20 8H11ZM10 11C10 10.4477 10.4477 10 11 10H20C20.5523 10 21 10.4477 21 11V20C21 20.5523 20.5523 21 20 21H11C10.4477 21 10 20.5523 10 20V11Z"
              fill="#000000"></path>
    </g>
</svg>